<svg width="90" height="110" viewBox="0 0 90 110" fill="none" xmlns="http://www.w3.org/2000/svg">
<path fill-rule="evenodd" clip-rule="evenodd" d="M24.513 0.544723C22.2642 1.25415 18.4287 5.22912 17.7392 7.56513C16.1227 13.041 18.5809 18.4362 23.8001 20.8686C26.7893 22.2617 29.581 22.2603 32.5313 20.8644C38.2481 18.1593 40.6293 12.0331 38.0873 6.5691C35.6428 1.3156 30.0039 -1.18734 24.513 0.544723ZM53.6079 0.359456C53.1039 0.58095 52.1761 1.31651 51.5461 1.9943C50.4272 3.19807 50.3951 3.42874 50.1715 11.946C49.8998 22.2879 50.3053 21.5982 43.1415 23.8943C38.5093 25.3787 38.4341 25.387 26.7897 25.6204C15.3717 25.8497 15.0372 25.8831 12.8224 27.025C9.93808 28.5122 3.10284 36.0393 1.29942 39.7153C0.164031 42.0298 0 42.8859 0 46.4995C0 53.204 1.83733 56.1462 10.958 64.0494L13.2105 66.0011L9.61781 87.2862C6.62905 104.993 6.12504 108.691 6.61943 109.287C7.48082 110.326 8.88471 110.167 9.39513 108.973C9.63751 108.405 11.4157 98.553 13.347 87.0784L16.8581 66.2158L18.738 64.5456C20.4851 62.9938 20.6184 62.7067 20.6184 60.4881V58.1007L15.6929 53.4269C11.1225 49.0901 10.7674 48.6278 10.7674 47.0187C10.7674 45.2123 11.2838 43.8778 12.5442 42.4255C13.2453 41.6184 13.3007 41.7202 13.5165 44.2131C13.7722 47.1631 14.7005 48.271 16.1511 47.3571C17.3126 46.6257 17.5852 37.1009 16.4764 35.9912C15.2022 34.7159 14.1232 35.1731 11.4478 38.1222C8.02835 41.8913 6.93833 44.2837 7.20041 47.4461C7.46204 50.6002 8.66569 52.3354 13.402 56.3847C17.0908 59.5388 17.7525 60.6408 16.6322 61.762C15.6246 62.7704 14.8118 62.3394 10.2849 58.3933C4.62631 53.4608 3.66 51.7205 3.67787 46.4913C3.69345 41.9147 4.32758 40.6192 9.32136 34.9621C14.3756 29.2367 14.1933 29.2945 27.2223 29.2945H37.7024L43.5681 27.4831C53.2436 24.495 53.5163 24.1002 53.837 12.6049C54.0368 5.4419 54.1678 4.33489 54.8679 3.8942C55.4521 3.52641 55.8874 3.52733 56.4716 3.89649C57.1891 4.35048 57.2734 5.31625 57.2734 13.08C57.2734 21.4849 57.2367 21.8274 56.1027 24.0309C54.3314 27.4735 52.1825 28.8075 43.5828 31.8043C37.3647 33.9711 35.9109 34.642 35.7203 35.4326C35.5915 35.966 35.5429 52.7858 35.6126 72.8097C35.7308 106.905 35.7895 109.249 36.5404 109.723C37.1251 110.092 37.5594 110.092 38.1441 109.723C38.895 109.249 38.9532 106.93 39.0632 73.2128L39.1805 37.2087L45.4778 35.0249C54.8299 31.7823 57.0503 30.2374 59.6473 25.1673L60.9389 22.6451V12.9099V3.17468L59.5217 1.75538C58.0088 0.240225 55.3215 -0.393992 53.6079 0.359456ZM31.0784 4.23951C35.7858 6.20819 36.9335 12.3853 33.2726 16.0498C30.3004 19.0241 26.0566 19.0241 23.0844 16.0498C17.4184 10.3785 23.6704 1.14179 31.0784 4.23951ZM78.1209 18.6486C76.6277 18.8916 75.83 19.5749 75.83 20.6104C75.83 21.7871 76.5411 22.0989 79.5862 22.2576C81.0528 22.3337 82.8329 22.6969 83.5422 23.0638C86.7444 24.7211 86.9635 26.2161 85.8872 39.0811C84.76 52.5523 83.7488 67.0852 83.3474 75.5804C83.0597 81.6704 82.9502 82.284 81.9733 83.2617C80.5763 84.6599 78.4146 84.6599 77.018 83.2621C76.0517 82.295 75.9294 81.6497 75.649 76.0395C75.1234 65.5329 74.4527 55.7184 73.3292 42.1132C72.5603 32.8063 72.3679 28.3787 72.6634 26.7966C73.1331 24.2795 72.6236 23.2009 71.0708 23.4256C68.6007 23.7828 68.4779 26.8177 70.1081 47.1792C70.7441 55.1241 71.5271 66.501 71.8479 72.4612C72.4183 83.0622 72.4572 83.3327 73.6462 84.8933C76.1658 88.1987 80.6102 88.8907 83.7809 86.4703C86.2514 84.5842 86.6858 83.07 87.0262 75.1526C87.38 66.9302 88.398 52.1029 89.3561 41.2176C90.5964 27.1341 90.1818 23.7067 86.9034 20.9461C84.8526 19.219 80.9273 18.1923 78.1209 18.6486ZM25.0839 64.7199C24.8319 65.0354 22.0942 75.0352 18.9996 86.9422C14.3238 104.933 13.4721 108.711 13.9591 109.298C14.6666 110.151 15.9829 110.217 16.6125 109.431C16.8645 109.116 18.9002 101.784 21.1357 93.1372C24.2757 80.9931 25.2736 77.7069 25.5229 78.6919C25.7006 79.3935 26.3893 86.4681 27.0532 94.413C27.7171 102.358 28.4736 109.116 28.7338 109.431C29.3634 110.194 30.6871 110.159 31.3469 109.364C31.7542 108.873 31.4353 103.629 29.9874 87.0078C28.9469 75.0645 27.883 65.0354 27.6232 64.7199C27.3629 64.4048 26.7879 64.1466 26.3458 64.1466C25.9036 64.1466 25.3355 64.4048 25.0839 64.7199ZM78.2355 92.1742C77.9207 92.4975 77.6627 93.1083 77.6627 93.5316C77.6627 94.5693 78.4852 95.1522 80.4462 95.5053C81.3979 95.6768 82.6455 96.3867 83.4244 97.2002C84.5346 98.36 84.7646 98.9878 84.7646 100.854C84.7646 102.788 84.552 103.321 83.2668 104.608C81.9775 105.898 81.4519 106.107 79.4955 106.107C77.5385 106.107 77.0139 105.898 75.7241 104.607C74.3532 103.234 74.2263 102.865 74.2263 100.25C74.2263 97.0438 73.8973 96.2473 72.5723 96.2473C71.5441 96.2473 70.3317 98.6301 70.3317 100.651C70.3317 104.638 73.1739 108.481 76.8934 109.523C82.0787 110.976 86.8732 108.228 88.2693 103.003C89.3259 99.0501 87.3291 94.4918 83.8093 92.8203C81.5252 91.7353 78.9534 91.4372 78.2355 92.1742ZM46.9825 107.002C45.7651 108.47 47.5529 110.725 49.1406 109.724C50.7268 108.724 50.1619 106.336 48.3387 106.336C47.8966 106.336 47.2863 106.636 46.9825 107.002ZM54.3135 107.002C53.0961 108.47 54.8839 110.725 56.4716 109.724C58.0578 108.724 57.4929 106.336 55.6697 106.336C55.2276 106.336 54.6173 106.636 54.3135 107.002ZM61.6445 107.002C60.4271 108.47 62.2149 110.725 63.8026 109.724C65.3888 108.724 64.8239 106.336 63.0007 106.336C62.5586 106.336 61.9483 106.636 61.6445 107.002Z" fill="#000A24"/>
</svg>
