<svg width="100" height="88" viewBox="0 0 100 88" fill="none" xmlns="http://www.w3.org/2000/svg">
<path fill-rule="evenodd" clip-rule="evenodd" d="M0.462875 1.72908C0.0334408 2.84647 -0.126018 18.9911 0.107645 37.607L0.5355 71.4519L20.6652 71.8932C39.4909 72.3061 40.7949 72.5346 40.7949 75.4392C40.7949 77.4186 39.7277 78.5439 37.8505 78.5439C34.5997 78.5439 26.5857 84.2318 26.5857 86.539C26.5857 87.3712 36.7674 88 50.2678 88C63.7681 88 73.9498 87.3712 73.9498 86.539C73.9498 84.2318 65.9358 78.5439 62.685 78.5439C60.8078 78.5439 59.7406 77.4186 59.7406 75.4392C59.7406 72.5346 61.0447 72.3061 79.8703 71.8932L100 71.4519V35.9916V0.531308L50.6214 0.11524C11.4766 -0.215722 1.08177 0.119969 0.462875 1.72908ZM97.6318 31.2636C97.6318 58.5806 97.515 59.6318 94.4742 59.6318C92.7375 59.6318 91.3166 60.341 91.3166 61.2078C91.3166 62.0746 92.7375 62.7838 94.4742 62.7838C96.5787 62.7838 97.6318 63.835 97.6318 65.9358C97.6318 69.0185 96.5787 69.0879 50.2678 69.0879C3.95676 69.0879 2.9037 69.0185 2.9037 65.9358C2.9037 62.8941 3.95676 62.7838 32.9009 62.7838C51.8466 62.7838 62.8982 62.2038 62.8982 61.2078C62.8982 60.2117 51.8466 59.6318 32.9009 59.6318H2.9037V34.4156V9.19938H42.3737C67.6346 9.19938 81.8438 8.63201 81.8438 7.62336C81.8438 6.61472 67.6346 6.04735 42.3737 6.04735C17.1129 6.04735 2.9037 5.47999 2.9037 4.47134C2.9037 3.45639 19.7448 2.89533 50.2678 2.89533H97.6318V31.2636ZM85.0014 7.62336C85.0014 8.49017 87.1328 9.19938 89.7378 9.19938C92.3428 9.19938 94.4742 8.49017 94.4742 7.62336C94.4742 6.75656 92.3428 6.04735 89.7378 6.04735C87.1328 6.04735 85.0014 6.75656 85.0014 7.62336ZM36.9127 17.453C35.768 18.0928 34.3866 20.3843 33.8435 22.5466C33.3004 24.7089 30.7348 27.5725 28.1424 28.9106C22.1651 31.9964 22.1461 35.4037 28.0887 38.8079C30.6527 40.2768 33.1393 43.0316 33.6177 44.9292C35.5738 52.7147 45.1556 56.319 48.61 50.5697C50.1888 47.9425 50.3467 47.9425 51.9255 50.5697C55.3799 56.319 64.9617 52.7147 66.9178 44.9292C67.3962 43.0316 69.8828 40.2768 72.4468 38.8079C78.2299 35.4951 78.3957 32.0374 72.9093 29.1675C70.5996 27.9602 67.5761 24.575 66.1915 21.6467L63.6718 16.3214L51.3319 16.3056C44.5446 16.2977 38.0557 16.8147 36.9127 17.453ZM63.6197 24.6364C64.4501 27.4149 65.9137 29.6875 66.8704 29.6875C67.8272 29.6875 69.9886 30.7056 71.6747 31.9491C74.5876 34.0972 74.4266 34.3415 68.4571 36.8489C60.9815 39.9884 36.1122 39.4998 29.8538 36.0909C26.3947 34.2075 26.2731 33.8135 28.6176 32.102C30.3654 30.827 35.4618 30.4488 44.1278 30.9483C53.5264 31.4921 56.7345 31.2068 55.9278 29.9035C55.3168 28.9184 50.994 28.1115 46.3207 28.1115C37.2111 28.1115 35.0307 26.671 37.4132 22.2251C38.6493 19.921 40.9655 19.4403 50.5109 19.5049L62.1088 19.5837L63.6197 24.6364ZM58.1618 29.6875C58.1618 30.5543 59.2274 31.2636 60.53 31.2636C61.8325 31.2636 62.8982 30.5543 62.8982 29.6875C62.8982 28.8207 61.8325 28.1115 60.53 28.1115C59.2274 28.1115 58.1618 28.8207 58.1618 29.6875ZM45.1872 46.781C45.6403 48.1363 44.8809 48.7037 43.081 48.357C41.5338 48.056 39.9487 46.8582 39.5603 45.6904C39.1072 44.335 39.8666 43.7676 41.6664 44.1144C43.2137 44.4154 44.7988 45.6131 45.1872 46.781ZM61.3194 45.3547C61.3194 47.6872 58.2644 48.9764 55.3673 47.8668C53.0922 46.9953 53.048 46.6502 55.0484 45.3878C58.0623 43.484 61.3194 43.4682 61.3194 45.3547ZM67.6346 61.2078C67.6346 62.9414 68.345 64.3598 69.2134 64.3598C70.0817 64.3598 70.7922 62.9414 70.7922 61.2078C70.7922 59.4742 70.0817 58.0558 69.2134 58.0558C68.345 58.0558 67.6346 59.4742 67.6346 61.2078ZM75.5286 61.2078C75.5286 62.9414 76.239 64.3598 77.1074 64.3598C77.9757 64.3598 78.6862 62.9414 78.6862 61.2078C78.6862 59.4742 77.9757 58.0558 77.1074 58.0558C76.239 58.0558 75.5286 59.4742 75.5286 61.2078ZM83.4226 61.2078C83.4226 62.9414 84.133 64.3598 85.0014 64.3598C85.8697 64.3598 86.5802 62.9414 86.5802 61.2078C86.5802 59.4742 85.8697 58.0558 85.0014 58.0558C84.133 58.0558 83.4226 59.4742 83.4226 61.2078ZM56.583 75.3919C56.583 78.0191 55.5299 78.5439 50.2678 78.5439C45.0056 78.5439 43.9525 78.0191 43.9525 75.3919C43.9525 72.7647 45.0056 72.2399 50.2678 72.2399C55.5299 72.2399 56.583 72.7647 56.583 75.3919ZM66.8452 83.272C67.4735 84.2869 61.5672 84.848 50.2678 84.848C38.9683 84.848 33.062 84.2869 33.6903 83.272C34.235 82.3925 41.5701 81.6959 50.2678 81.6959C58.9654 81.6959 66.3005 82.3925 66.8452 83.272Z" fill="#2D5BD0"/>
</svg>
