<svg width="100" height="96" viewBox="0 0 100 96" fill="none" xmlns="">
<path fill-rule="evenodd" clip-rule="evenodd" d="M0 40.2857V80.5714H17.4431C34.6897 80.5714 34.8741 80.6143 33.8448 84.4286C33.2741 86.5509 32.7948 89.2509 32.7828 90.4286C32.769 91.608 30.819 92.5714 28.4483 92.5714C26.0776 92.5714 24.1379 93.3429 24.1379 94.2857C24.1379 95.352 33.9086 96 50 96C66.0914 96 75.8621 95.352 75.8621 94.2857C75.8621 93.3429 73.9224 92.5714 71.5517 92.5714C69.181 92.5714 67.231 91.608 67.2172 90.4286C67.2052 89.2509 66.7259 86.5491 66.1552 84.4286C65.1259 80.6143 65.3103 80.5714 82.5569 80.5714H100V40.2857V0H50H0V40.2857ZM96.5517 32.5714V61.7143H82.8052H69.0603L68.581 37.2857L68.1034 12.8571L59.0517 12.3394L50 11.82V36.768C50 52.2566 49.3465 61.7143 48.2759 61.7143C47.231 61.7143 46.5517 54.3051 46.5517 42.9154C46.5517 28.8257 45.8241 22.5977 43.6466 18.0583C42.0483 14.7257 40.2517 12 39.6552 12C39.0586 12 37.2621 14.7257 35.6638 18.0583C33.4862 22.5977 32.7586 28.8257 32.7586 42.9154V61.7143H18.1034H3.44828V32.5714V3.42857H50H96.5517V32.5714ZM65.5172 38.5714V61.7143H59.4845C53.5845 61.7143 53.4603 61.5703 53.881 55.2857C54.1172 51.7509 55.0862 48.2794 56.0345 47.5714C57.1724 46.7229 57.1362 45.8486 55.9293 45C54.9224 44.292 54.0983 41.7857 54.0983 39.4286C54.0983 37.0714 54.9224 34.5651 55.9293 33.8571C57.219 32.9503 57.219 32.1926 55.9293 31.2857C54.9224 30.5777 54.0983 28.0714 54.0983 25.7143C54.0983 23.3571 54.9224 20.8509 55.9293 20.1429C57.1465 19.2874 56.8948 18.2931 55.1724 17.1686C53.2328 15.9034 54.2017 15.4749 59.0517 15.4543L65.5172 15.4286V38.5714ZM42.0569 19.8549C43.5741 23.7874 43.4517 24 39.6552 24C35.8586 24 35.7362 23.7874 37.2534 19.8549C38.5914 16.3851 40.719 16.3851 42.0569 19.8549ZM44.4638 40.7143C43.9672 55.6646 43.95 55.716 39.2241 56.256L34.4828 56.7994V41.256V25.7143H39.7224H44.9621L44.4638 40.7143ZM44.8276 60C44.8276 60.9429 42.5 61.7143 39.6552 61.7143C36.8103 61.7143 34.4828 60.9429 34.4828 60C34.4828 59.0571 36.8103 58.2857 39.6552 58.2857C42.5 58.2857 44.8276 59.0571 44.8276 60ZM96.5517 71.1429V77.1429H50H3.44828V71.1429V65.1429H50H96.5517V71.1429ZM63.6241 85.9697C64.6655 88.9389 65.5172 91.6389 65.5172 91.9697C65.5172 92.3006 58.5345 92.5714 50 92.5714C41.4655 92.5714 34.4828 92.3006 34.4828 91.9697C34.4828 91.6389 35.3345 88.9389 36.3759 85.9697C38.2483 80.628 38.3914 80.5714 50 80.5714C61.6086 80.5714 61.7517 80.628 63.6241 85.9697Z" fill="#2D5BD0"/>
</svg>
