<svg width="90" height="90" viewBox="0 0 90 90" fill="none" xmlns="http://www.w3.org/2000/svg">
<path fill-rule="evenodd" clip-rule="evenodd" d="M4.90484 0.3038C3.18105 0.805064 0.813836 3.28247 0.324223 5.09866C0.0470773 6.12597 -0.0480622 16.1024 0.0222584 36.7526L0.124919 66.9062L1.01728 68.3394C1.50802 69.1279 2.59554 70.2262 3.43338 70.78L4.95749 71.7874L20.2611 71.897L35.5647 72.0067L34.4504 76.4475L33.3362 80.8886L31.0893 81.0921C27.3311 81.4323 24.7259 83.7633 24.1607 87.2913C23.7 90.1678 22.3906 89.9981 45.0625 89.9981C67.7343 89.9981 66.4249 90.1678 65.9642 87.2913C65.399 83.7633 62.7938 81.4323 59.0356 81.0921L56.7887 80.8886L55.6745 76.4475L54.5603 72.0067L69.8638 71.897L85.1674 71.7874L86.6915 70.78C87.5294 70.2262 88.6169 69.1279 89.1076 68.3394L90 66.9062V35.9018V4.8974L88.9911 3.37521C88.4364 2.53827 87.3365 1.45201 86.5468 0.962014L85.1114 0.0710031L45.6265 0.00754735C21.3802 -0.0315024 5.66446 0.0830184 4.90484 0.3038ZM85.7623 4.30227L86.9916 5.52971L87.0932 31.9938L87.1943 58.4579H45.0625H2.9306L3.03176 32.0167L3.13329 5.57552L4.07341 4.56586C4.59047 4.01052 5.35196 3.41501 5.76561 3.24267C6.17927 3.07033 24.0712 2.96219 45.5254 3.00199L84.533 3.07483L85.7623 4.30227ZM29.4565 10.4601C21.1835 12.9477 14.2033 15.1547 13.9446 15.3642C13.2358 15.9387 13.3798 17.0899 14.2267 17.6179C14.9536 18.0714 14.9788 18.4931 14.9776 30.2936L14.9769 42.5001L13.5674 43.251L12.1584 44.0024L12.0535 49.2072C11.9828 52.7251 12.0888 54.5811 12.3814 54.9333C12.9959 55.6722 19.97 55.6722 20.5845 54.9333C20.877 54.5811 20.9831 52.7251 20.9124 49.2072L20.8075 44.0024L19.3984 43.251L17.989 42.5001L17.9882 30.7664C17.9875 24.313 18.0864 19.0327 18.2075 19.0327C18.3289 19.0327 19.6827 19.3965 21.2159 19.8414L24.0039 20.6502V27.8684C24.0039 33.1916 24.1272 35.185 24.4739 35.4625C24.7326 35.6694 29.4829 37.2257 35.0299 38.921L45.1159 42.0033L55.1484 38.9281C60.6665 37.2366 65.3927 35.6803 65.651 35.4696C65.9973 35.1873 66.1211 33.1897 66.1211 27.8771V20.6683L71.0642 19.1934C76.2089 17.6584 77.2163 17.01 76.4202 15.7472C76.1352 15.2952 71.2654 13.6618 60.8162 10.5131C52.4619 7.99585 45.3727 5.93635 45.0625 5.93635C44.7522 5.93673 37.7296 7.9722 29.4565 10.4601ZM57.378 12.6642C63.8415 14.5915 69.1294 16.274 69.1294 16.4032C69.1294 16.5324 63.7144 18.2573 57.0959 20.2365L45.0625 23.835L33.029 20.2365C26.4106 18.2573 20.9955 16.5324 20.9955 16.4032C20.9955 16.1107 44.7342 8.92479 45.2505 9.06109C45.4573 9.1159 50.9149 10.7372 57.378 12.6642ZM36.6954 24.4963L45.0625 26.9928L53.4295 24.4963C58.0315 23.1231 62.097 21.9107 62.4644 21.8022C63.0871 21.6175 63.1251 22.002 63.0284 27.4971L62.9247 33.3902L54.0011 36.129L45.0779 38.8681L40.8395 37.5625C38.5087 36.8442 34.444 35.5868 31.8068 34.7675L27.0122 33.278V27.4441C27.0122 22.0643 27.0634 21.6257 27.6703 21.8052C28.0324 21.9122 32.0934 23.1231 36.6954 24.4963ZM17.3922 45.5441C17.8732 45.7284 17.9871 46.4126 17.9871 49.1111V52.4503H16.4829H14.9788V49.1021C14.9788 45.7964 15.1134 45.4299 16.3581 45.3458C16.5999 45.3297 17.0651 45.4187 17.3922 45.5441ZM69.1294 53.9522V55.4541H70.6336H72.1378V53.9522V52.4503H70.6336H69.1294V53.9522ZM75.1462 53.9522V55.4541H76.6504H78.1545V53.9522V52.4503H76.6504H75.1462V53.9522ZM81.1629 53.9522V55.4541H82.6671H84.1713V53.9522V52.4503H82.6671H81.1629V53.9522ZM87.1108 63.9136C86.9732 66.0715 86.8092 66.5104 85.7435 67.5745L84.533 68.7836H45.0625H5.59188L4.38139 67.5745C3.31567 66.5104 3.15172 66.0715 3.01408 63.9136L2.85765 61.4617H45.0625H87.2673L87.1108 63.9136ZM52.4924 76.4809L53.6228 80.9866H45.0625H36.5021L37.6325 76.4809L38.7629 71.9751H45.0625H51.362L52.4924 76.4809ZM61.5841 85.281C62.2181 85.8874 62.7366 86.5212 62.7366 86.689C62.7366 86.8568 54.7833 86.9943 45.0625 86.9943C35.3417 86.9943 27.3883 86.8568 27.3883 86.689C27.3883 86.2891 29.2971 84.5195 30.0206 84.2484C30.3308 84.132 37.3001 84.0689 45.5081 84.1076L60.4318 84.1782L61.5841 85.281Z" fill="#2D5BD0"/>
</svg>
