<svg width="105" height="117" viewBox="0 0 105 117" fill="none" xmlns="http://www.w3.org/2000/svg">
<path fill-rule="evenodd" clip-rule="evenodd" d="M71.4789 2.4696C70.9444 3.86886 69.0655 4.63342 67.3052 4.17249C63.4543 3.16282 58.9905 7.98616 60.3896 11.6444C60.9405 13.082 60.2109 14.7136 58.7698 15.2678C57.3286 15.822 56.1484 17.973 56.1484 20.0491C56.1484 22.1251 57.3286 24.2761 58.7698 24.8303C60.2109 25.3845 60.9405 27.0161 60.3896 28.4538C58.9905 32.112 63.4543 36.9353 67.3052 35.9256C69.0655 35.4647 70.9444 36.2293 71.4789 37.6285C72.7394 40.9227 79.6896 40.9227 80.9501 37.6285C81.4846 36.2293 83.3635 35.4647 85.1239 35.9256C88.9747 36.9353 93.4386 32.112 92.0394 28.4538C91.4885 27.0161 92.2182 25.3845 93.6593 24.8303C97.014 23.5408 97.076 16.5829 93.7468 15.3007C92.3513 14.7648 91.5888 12.8808 92.0485 11.1157C93.0555 7.25452 88.2451 2.77871 84.5967 4.18163C83.1629 4.73402 81.5357 4.00238 80.983 2.55739C79.6969 -0.806317 72.7577 -0.868507 71.4789 2.4696ZM78.7429 6.44788C79.3959 8.15626 81.4974 9.0763 83.9546 8.73426C87.1724 8.28613 87.9368 8.93911 87.4534 11.723C87.1123 13.6838 88.2962 16.3579 90.082 17.6676C93.1959 19.9503 93.1959 20.1478 90.082 22.4305C88.2962 23.7402 87.1123 26.4143 87.4534 28.3751C87.9167 31.0492 87.1852 31.7827 84.5182 31.3181C82.5627 30.9761 79.8957 32.1632 78.5896 33.9539C76.313 37.0761 76.116 37.0761 73.8394 33.9539C72.5333 32.1632 69.8663 30.9761 67.9108 31.3181C65.2438 31.7827 64.5123 31.0492 64.9757 28.3751C65.3168 26.4143 64.1329 23.7402 62.347 22.4305C59.2331 20.1478 59.2331 19.9503 62.347 17.6676C64.1329 16.3579 65.3168 13.6838 64.9757 11.723C64.4923 8.93911 65.2566 8.28613 68.4745 8.73426C70.9317 9.0763 73.0331 8.15626 73.6862 6.44788C74.2882 4.87486 75.4265 3.58718 76.2145 3.58718C77.0026 3.58718 78.1409 4.87486 78.7429 6.44788ZM69.9594 13.7771C68.3833 15.3592 67.0936 18.1815 67.0936 20.0491C67.0936 27.852 76.9369 31.8669 82.4697 26.321C88.0006 20.7734 83.9965 10.9036 76.2145 10.9036C74.352 10.9036 71.5373 12.1967 69.9594 13.7771ZM18.3584 16.4293C17.5831 19.4052 16.8845 19.7015 14.7812 17.9511C10.954 14.7666 3.45109 22.2897 6.62701 26.1271C8.37276 28.2361 8.07724 28.9366 5.10928 29.714C3.08078 30.2463 1.42259 31.6364 1.42259 32.8052C1.42259 34.1569 2.91478 34.477 5.52702 33.685C11.9409 31.7425 13.4623 29.5439 11.0616 25.6882C8.51505 21.6001 10.1331 19.2607 13.5444 22.0995C16.6181 24.6566 21.4887 22.8732 21.4887 19.1912C21.4887 17.6511 22.3096 16.3909 23.3129 16.3909C24.3162 16.3909 25.1371 17.6511 25.1371 19.1912C25.1371 22.8732 30.0077 24.6566 33.0815 22.0995C36.4927 19.2607 38.1108 21.6001 35.5642 25.6882C33.1636 29.5439 34.6849 31.7425 41.0988 33.685C43.711 34.477 45.2032 34.1569 45.2032 32.8052C45.2032 31.6364 43.545 30.2463 41.5165 29.714C38.5486 28.9366 38.253 28.2361 39.9988 26.1271C43.1747 22.2897 35.6718 14.7666 31.8447 17.9511C29.7414 19.7015 29.0427 19.4052 28.2674 16.4293C27.6709 14.1411 25.7829 12.7327 23.3129 12.7327C20.843 12.7327 18.9549 14.1411 18.3584 16.4293ZM80.775 20.0491C80.775 23.4018 79.6768 24.7773 76.6633 25.2071C74.1951 25.5583 72.1101 24.6437 71.4515 22.9207C69.6347 18.1742 72.1794 14.2526 76.6633 14.891C79.6768 15.3208 80.775 16.6963 80.775 20.0491ZM17.0578 26.5808C13.9603 29.6866 13.1868 34.6818 15.8027 34.6818C16.6893 34.6818 17.844 33.0356 18.3693 31.0236C18.9567 28.772 20.8575 27.3654 23.3129 27.3654C25.7683 27.3654 27.6691 28.772 28.2565 31.0236C29.3492 35.2141 32.4339 35.986 32.4339 32.0681C32.4339 28.3843 27.3316 23.7072 23.3129 23.7072C21.4504 23.7072 18.6357 25.0004 17.0578 26.5808ZM8.1119 37.7309C7.44243 38.4004 6.89517 52.393 6.89517 68.8256C6.89517 97.8607 6.78936 98.7002 3.10267 98.7002C-0.222834 98.7002 -0.534772 99.4355 0.581635 104.645C3.39089 117.77 0.116465 116.991 52.5 116.991C104.884 116.991 101.609 117.77 104.418 104.645C105.535 99.4355 105.223 98.7002 101.897 98.7002C98.2088 98.7002 98.1048 97.8662 98.1048 68.4634C98.1048 42.8963 97.6707 38.0583 95.2901 37.142C93.7414 36.5457 91.8953 36.6847 91.1857 37.4493C90.4761 38.2157 90.923 39.2089 92.1762 39.657C95.0584 40.6904 95.5072 98.7002 92.6323 98.7002C91.4976 98.7002 90.8081 88.3348 90.8081 71.2638V43.8273H52.5H14.1919V71.2638C14.1919 88.3348 13.5024 98.7002 12.3677 98.7002C11.2276 98.7002 10.5436 87.7257 10.5436 69.4347V40.1691H36.0823C51.8925 40.1691 61.621 39.4722 61.621 38.34C61.621 36.2933 10.1295 35.708 8.1119 37.7309ZM87.1597 73.0929V98.7002H74.3903C64.2551 98.7002 61.621 99.2673 61.621 101.444C61.621 103.516 59.3918 104.188 52.5 104.188C45.6082 104.188 43.379 103.516 43.379 101.444C43.379 99.2673 40.7449 98.7002 30.6097 98.7002H17.8403V73.0929V47.4855H52.5H87.1597V73.0929ZM21.4887 73.0929V95.0421H52.5H83.5113V73.0929V51.1437H52.5H21.4887V73.0929ZM79.8629 56.631C79.8629 57.7687 69.5252 58.4601 52.5 58.4601C35.4748 58.4601 25.1371 57.7687 25.1371 56.631C25.1371 55.4933 35.4748 54.8019 52.5 54.8019C69.5252 54.8019 79.8629 55.4933 79.8629 56.631ZM79.8629 76.7511V91.3839H52.5H25.1371V76.7511V62.1183H52.5H79.8629V76.7511ZM36.0823 71.3132L29.6976 76.7511L36.0823 82.189C39.5938 85.1796 43.0817 87.6488 43.8351 87.6763C46.7976 87.7824 44.9515 84.1809 40.1867 80.5611L35.1702 76.7511L40.1867 72.9411C44.9515 69.3213 46.7976 65.7198 43.8351 65.8259C43.0817 65.8533 39.5938 68.3226 36.0823 71.3132ZM50.9294 75.9993C46.4893 87.6324 46.471 87.7257 48.5981 87.7257C49.4627 87.7257 51.9254 83.1255 54.0706 77.5028C58.5107 65.8698 58.529 65.7765 56.402 65.7765C55.5373 65.7765 53.0746 70.3767 50.9294 75.9993ZM59.7968 67.4538C59.7968 68.3756 62.0533 70.8157 64.8133 72.877L69.8298 76.623L64.3573 81.0952C61.3473 83.5553 59.4465 86.138 60.1324 86.8312C61.4787 88.1921 74.3903 79.0631 74.3903 76.7511C74.3903 75.2933 62.6316 65.7765 60.8311 65.7765C60.2619 65.7765 59.7968 66.5301 59.7968 67.4538ZM39.7306 105.102C39.7306 107.279 42.3648 107.846 52.5 107.846C62.6352 107.846 65.2694 107.279 65.2694 105.102C65.2694 102.849 68.4945 102.358 83.3544 102.358H101.438L100.097 107.388L98.7542 112.418H52.5H6.24576L4.90315 107.388L3.56237 102.358H21.6456C36.5055 102.358 39.7306 102.849 39.7306 105.102Z" fill="#2D5BD0"/>
</svg>
