<svg width="92" height="86" viewBox="0 0 92 86" fill="none" xmlns="http://www.w3.org/2000/svg">
<path fill-rule="evenodd" clip-rule="evenodd" d="M33.441 4.55568C29.0478 5.92893 25.2724 9.81814 23.9753 14.3066C23.2689 16.7505 23.5871 18.1166 24.9649 18.5567C26.2375 18.9627 27.3026 18.1028 27.7791 16.2847C28.441 13.7588 29.9881 11.3443 31.7832 10.0364C34.0812 8.36172 34.5872 8.46668 34.2525 10.5481C33.6095 14.5494 31.6178 17.2044 27.8078 19.1389C26.5895 19.7576 24.6333 20.9887 23.4611 21.8747C21.2194 23.5692 20.6748 23.6346 20.6685 22.2094C20.6575 19.659 16.3655 13.6178 14.5648 13.6178C13.382 13.6178 11.017 16.2907 9.70031 19.1156C8.80135 21.0445 8.66511 21.8438 8.68086 25.1045C8.70449 30.018 9.54753 32.036 11.5762 32.036C13.4277 32.036 13.8891 31.1797 13.2772 28.878C12.5657 26.2028 12.6917 22.8024 13.5741 20.8465C13.9919 19.9208 14.4979 19.1631 14.6983 19.1631C15.4331 19.1631 16.7349 23.0606 16.7349 25.2609C16.7349 27.0647 16.4348 28.0351 15.0247 30.7915C13.5127 33.7471 12.2054 36.7923 11.4431 39.134C11.219 39.8228 11.0576 39.7602 9.7322 38.4674C8.16424 36.9384 5.09527 35.2527 3.11623 34.8336C2.2216 34.6443 1.65065 34.7801 0.950539 35.3505C0.0515825 36.0833 0 36.3574 0 40.4181C0 44.3782 0.0893837 44.8884 1.15215 46.9995C2.41572 49.51 5.63984 52.8308 6.81286 52.8308C7.72284 52.8308 8.85963 51.6342 8.85963 50.6764C8.85963 50.2887 7.9776 49.0002 6.89948 47.8139C5.58117 46.363 4.74285 44.9914 4.34004 43.6264C3.03432 39.2033 3.87107 38.6488 7.03691 41.8393C9.34947 44.1703 9.84797 45.5186 10.2528 50.5394C10.3882 52.22 10.7221 54.5593 10.9946 55.7381L11.4896 57.8809L10.0767 57.4888C8.25087 56.9814 3.46943 57.2923 1.96093 58.0164C0.383523 58.7733 0.229957 60.4832 1.49078 63.2535C3.33949 67.3154 6.73844 70.1245 11.1938 71.2727C14.6924 72.1742 15.9013 71.5655 15.5673 69.0705C15.4429 68.1409 15.0811 67.9214 12.6019 67.2718C9.62431 66.4915 7.89137 65.3983 6.44193 63.3858C5.36185 61.8862 5.33231 61.7543 6.01707 61.4992C6.93177 61.159 10.0563 61.7214 11.512 62.4883C12.7197 63.1244 14.4195 64.8838 16.1489 67.2881C16.7758 68.1595 18.3071 69.9478 19.5514 71.2621L21.8144 73.6517L19.7837 74.3773C17.266 75.2768 12.7972 79.5419 12.7972 81.0455C12.7972 82.2916 14.0463 83.4383 16.7699 84.6923C20.7827 86.5405 26.2631 86.3293 29.9109 84.1861C31.5434 83.2271 32.075 81.6333 31.1178 80.569C30.1995 79.5483 29.6128 79.559 27.3979 80.6375C26.4123 81.1176 24.6034 81.5834 23.3776 81.6725C21.219 81.8293 18.3099 81.2067 18.3099 80.5876C18.3099 79.4976 22.8177 77.3884 25.1472 77.3884C25.8713 77.3884 28.5717 78.0851 31.1481 78.9367C38.7906 81.4626 41.5418 81.4744 41.5418 78.9815C41.5418 77.7116 40.3424 76.5962 38.9776 76.5962C37.4329 76.5962 33.4614 75.379 30.6413 74.0414C23.502 70.6544 18.3902 64.8256 15.6886 56.9897C14.6963 54.1121 14.5959 53.3116 14.5959 48.2757C14.5959 43.2398 14.6963 42.4394 15.6886 39.5618C16.2895 37.819 17.5141 35.1663 18.4099 33.6667C21.3997 28.6621 23.4753 26.7989 31.9195 21.5396C34.5325 19.9121 36.9549 16.7561 37.8074 13.8686C38.9883 9.86884 38.2937 4.48914 36.5367 4.0269C36.1177 3.91679 34.7246 4.15484 33.441 4.55568ZM53.9252 5.48531C53.1924 7.24989 53.1936 11.3688 53.9276 13.8226C55.1585 17.9372 57.5419 20.3898 63.7759 23.9578C66.8894 25.7398 71.2783 30.1839 73.3191 33.6204C74.2244 35.1453 75.4569 37.819 76.0577 39.5618C77.05 42.4394 77.1504 43.2398 77.1504 48.2757C77.1504 53.3116 77.05 54.1121 76.0577 56.9897C72.5466 67.174 63.5601 75.0384 53.8618 76.4144C52.825 76.5617 51.578 76.9341 51.0905 77.2422C49.8955 77.998 49.8785 79.9574 51.061 80.5943C52.2151 81.2154 56.2452 80.4807 61.3248 78.7228C63.4456 77.9889 65.7959 77.3884 66.548 77.3884C68.9118 77.3884 73.4365 79.4849 73.4365 80.5797C73.4365 81.116 70.9924 81.7454 68.948 81.7359C67.7305 81.7303 66.0089 81.341 64.5768 80.7476C61.7248 79.5657 61.5398 79.5562 60.6534 80.5413C59.0327 82.3431 61.033 84.3722 65.5872 85.5463C68.7657 86.365 71.9788 86.0731 74.9765 84.6923C77.7001 83.4383 78.9491 82.2916 78.9491 81.0455C78.9491 79.5419 74.4803 75.2768 71.9626 74.3773L69.932 73.6517L72.1949 71.2621C73.4392 69.9478 74.9706 68.1595 75.5974 67.2881C77.3268 64.8838 79.0267 63.1244 80.2344 62.4883C81.6901 61.7214 84.8146 61.159 85.7293 61.4992C86.414 61.7543 86.3845 61.8862 85.3044 63.3858C83.8644 65.3853 82.1236 66.4911 79.2173 67.2528C76.2759 68.0232 76.1928 68.0906 76.1928 69.6963C76.1928 71.7013 77.3154 72.1069 80.5525 71.2727C85.0079 70.1245 88.4069 67.3154 90.2556 63.2535C91.5164 60.4832 91.3628 58.7733 89.7854 58.0164C88.2769 57.2923 83.4955 56.9814 81.6696 57.4888L80.2568 57.8809L80.7518 55.7381C81.0242 54.5593 81.3582 52.22 81.4936 50.5394C81.8984 45.5186 82.3969 44.1703 84.7095 41.8393C85.8447 40.6958 87.0732 39.7598 87.4402 39.7598C88.0155 39.7598 88.0702 40.0402 87.8383 41.7977C87.4949 44.402 86.4109 46.525 84.4456 48.4437C82.1709 50.6642 82.4174 52.8308 84.9445 52.8308C85.7407 52.8308 86.5684 52.3171 87.8505 51.027C91.0553 47.8036 92.4847 43.2858 91.8543 38.3735C91.4849 35.4939 90.5166 34.428 88.6459 34.8411C86.3743 35.343 84.0877 36.5566 82.313 38.202C80.7451 39.656 80.5061 39.7638 80.2954 39.1122C79.587 36.921 79.0247 35.61 77.1126 31.6883C75.3564 28.0874 75.0115 27.0263 75.0115 25.2264C75.0115 23.059 76.32 19.1631 77.048 19.1631C77.2485 19.1631 77.7544 19.9208 78.1722 20.8465C79.0546 22.8024 79.1807 26.2028 78.4691 28.878C77.897 31.03 78.3073 31.9735 79.8985 32.1636C81.4208 32.3458 81.9295 31.7481 82.7052 28.8649C84.0042 24.0374 82.8076 18.8926 79.539 15.2537C78.6436 14.2567 77.723 13.6178 77.1815 13.6178C75.3809 13.6178 71.0889 19.659 71.0778 22.2094C71.0715 23.6346 70.527 23.5692 68.2853 21.8747C67.1131 20.9887 65.1569 19.7576 63.9386 19.1389C60.1285 17.2044 58.1369 14.5494 57.4939 10.5481C57.1592 8.46668 57.6651 8.36172 59.9631 10.0364C61.7583 11.3443 63.3054 13.7588 63.9673 16.2847C64.4437 18.1028 65.5089 18.9627 66.7815 18.5567C68.1593 18.1166 68.4774 16.7505 67.771 14.3066C66.1976 8.86119 60.6317 4.11167 55.8239 4.11167C54.6804 4.11167 54.4162 4.30298 53.9252 5.48531ZM42.1978 29.7284C39.8876 30.5317 36.684 33.3404 35.5507 35.5561C34.9963 36.6398 34.6573 38.1992 34.5376 40.2125C34.3604 43.1935 34.6758 44.3386 36.7167 48.1296C36.7903 48.2666 36.252 48.492 35.5196 48.6302C32.5168 49.197 29.8294 52.874 28.9296 57.6468C28.6178 59.3005 28.6595 59.8749 29.145 60.6207C30.2625 62.3362 32.8791 61.4477 32.8791 59.3528C32.8791 57.7787 34.4423 54.086 35.444 53.2934C35.9811 52.8684 37.6991 52.3373 39.4549 52.054C43.3484 51.4255 43.9044 51.1236 43.9044 49.6399C43.9044 48.6841 43.5571 48.2124 42.0931 47.1782C38.0259 44.3057 37.39 39.3776 40.6224 35.7787C43.6461 32.4119 48.7449 32.36 51.8528 35.6646C53.207 37.104 53.7484 38.5699 53.7484 40.7956C53.7484 43.6403 52.2923 46.0113 49.7411 47.3212C48.0353 48.1969 47.5455 49.346 48.3511 50.583C48.7776 51.2377 49.5722 51.5768 51.4355 51.9C56.365 52.7547 58.1322 54.183 58.6708 57.7486C59.2244 61.4121 60.3833 62.59 62.2336 61.3705C63.4456 60.5716 63.4952 59.0288 62.4206 55.5297C61.4512 52.3725 59.4749 49.9611 57.1131 49.0537L55.3676 48.3831L56.5642 46.2505C58.0904 43.5298 58.4326 40.3912 57.5395 37.3009C56.7859 34.6926 54.0933 31.4447 51.6272 30.1685C49.4363 29.0345 44.8148 28.819 42.1978 29.7284Z" fill="#2D5BD0"/>
</svg>
