<svg width="255" height="80" viewBox="0 0 255 80" fill="none" xmlns="http://www.w3.org/2000/svg">
<path fill-rule="evenodd" clip-rule="evenodd" d="M103.246 0H148.493C151.392 0 153.913 2.36025 153.913 5.34162V74.6584C153.913 77.6396 151.392 80 148.493 80H103.246C100.347 80 97.8261 77.6396 97.8261 74.6584V5.34162C97.8261 2.36025 100.347 0 103.246 0Z" fill="#4B75A4"/>
<path d="M5.86957 18.2109V66.9914H0V18.2109H5.86957Z" fill="#5B5B5B"/>
<path d="M53.4783 18.2109V66.9914H42.8832L23.3528 24.9307C24.5018 38.8678 24.1187 53.0543 24.1187 66.9914H17.6087V18.2109H27.9482L47.6062 60.3959C46.3299 46.7078 46.968 31.8995 46.968 18.2109H53.4783Z" fill="#5B5B5B"/>
<path d="M91.9565 18.2109L90.712 23.4373H78.0168V66.9914H72.4163V23.4373H59.3478L60.3436 18.2109H91.9565Z" fill="#5B5B5B"/>
<path d="M111.522 66.9914V18.2109H105V66.9914H111.522Z" fill="#FEFEFE"/>
<path d="M150.652 18.2109L149.509 23.4373H136.426V66.9914H130.076V23.4373H116.739L117.882 18.2109H150.652Z" fill="#FEFEFE"/>
<path d="M171.69 44.8411H184.02C182.636 39.8633 180.875 33.7658 177.855 23.313C175.087 33.0192 173.325 39.2415 171.69 44.8411ZM185.656 50.5654H170.18V50.3164C168.796 55.0453 167.412 60.0227 165.399 66.9914H158.479L173.325 18.2109H182.762L197.609 66.9914H190.311C188.172 59.5251 186.914 54.9206 185.656 50.5654Z" fill="#5B5B5B"/>
<path fill-rule="evenodd" clip-rule="evenodd" d="M223.696 17.5605H217.947L198.913 66.9914H204.789L223.696 17.5605Z" fill="#4B75A4"/>
<path fill-rule="evenodd" clip-rule="evenodd" d="M226.304 59.9077L250.217 44.2467L226.304 26.5973V19.5127L255 41.6368V47.4786L226.304 66.9924V59.9077Z" fill="#4B75A4"/>
</svg>
