<svg width="95" height="98" viewBox="0 0 95 98" fill="none" xmlns="http://www.w3.org/2000/svg">
<path fill-rule="evenodd" clip-rule="evenodd" d="M67.7204 3.53806C66.2182 6.33253 65.3539 6.63043 63.4077 5.02246C59.8368 2.07397 55.3506 6.21066 56.6282 11.2749C57.3291 14.0558 56.6435 15.652 54.1852 16.9603C49.7058 19.3452 49.7262 25.4775 54.2175 26.647C56.7099 27.2953 57.3802 28.448 56.6282 30.8007C55.1838 35.3317 59.0117 39.4058 63.6323 38.2515C66.4172 37.5558 67.6217 38.1854 68.2767 40.682C69.3349 44.7087 77.9875 45.5364 77.9875 41.6113C77.9875 38.1702 81.1297 36.6503 83.7581 38.8202C86.9565 41.4623 91.7727 35.7701 90.4832 30.8701C89.7669 28.145 90.2484 27.1243 92.2491 27.1243C94.1715 27.1243 95 25.5942 95 22.0466C95 18.509 94.1698 16.9688 92.2644 16.9688C90.2382 16.9688 89.7891 15.9312 90.5342 12.9743C91.834 7.82201 86.9939 3.17246 81.7523 4.53669C79.0133 5.24927 77.9875 4.77027 77.9875 2.77978C77.9875 -1.31968 70.0171 -0.732353 67.7204 3.53806ZM76.2862 4.27434C76.2862 6.77261 77.1709 7.14328 83.9418 7.48688C86.0888 7.59521 87.409 8.90866 87.5179 11.0447C87.8632 17.7812 88.2358 18.6614 90.7469 18.6614C94.2566 18.6614 93.9639 23.1992 90.3215 25.2354C88.588 26.207 87.3443 28.8914 87.3443 31.6673C87.3443 35.8632 86.7812 36.3744 82.6387 35.9428C79.6258 35.6279 77.5723 36.3879 76.9276 38.0585C75.5819 41.5486 69.4812 41.4318 69.4812 37.9146C69.4812 35.7617 68.3737 35.3842 64.3774 36.1797C59.0661 37.2359 58.6068 36.6198 59.2073 29.2401C59.4081 26.7757 58.5744 25.4318 56.8443 25.4318C53.389 25.4318 53.3465 19.3384 56.7898 18.0233C58.469 17.3818 59.2328 15.3388 58.9164 12.3412C58.4826 8.21977 58.9964 7.65952 63.2138 7.65952C66.0038 7.65952 68.702 6.42224 69.6785 4.69749C71.7251 1.07364 76.2862 0.782518 76.2862 4.27434ZM64.5016 14.6584C62.5622 17.111 60.9749 20.5723 60.9749 22.3512C60.9749 26.5286 68.3788 33.8947 72.5775 33.8947C78.1695 33.8947 84.7925 27.4036 84.7925 21.923C84.7925 10.9567 71.259 6.1108 64.5016 14.6584ZM21.8835 14.787C13.4708 19.093 11.9822 25.5672 16.3289 38.9251C20.3149 51.1693 18.8298 56.848 11.1996 58.527C5.54636 59.7694 3.92847 62.5588 2.41265 73.6707C1.77809 78.3253 0.857707 84.7995 0.367746 88.0577C-0.305951 92.5295 -0.0830864 93.3589 1.27792 91.4429C2.26975 90.0465 3.09145 87.1894 3.10676 85.0957C3.12548 82.3587 4.14113 81.2873 6.72023 81.2873C9.81991 81.2873 10.2146 82.0947 9.61406 87.2114C9.23128 90.4697 9.5307 93.1355 10.2793 93.1355C11.0261 93.1355 11.6386 90.8962 11.6386 88.1576C11.6386 80.7034 14.7314 80.2565 15.5004 87.599L16.1707 93.9818L16.4565 87.8275C16.613 84.444 15.5991 79.4932 14.2006 76.8257C11.8733 72.3843 11.659 72.298 11.6488 75.7864C11.642 78.657 10.6501 79.5947 7.62189 79.5947C4.19897 79.5947 3.71071 78.9059 4.32146 74.9401C5.98018 64.1921 6.80699 62.4809 11.1486 60.8391C15.1823 59.3141 16.249 59.7795 21.0805 65.1823C26.1366 70.8373 26.3969 71.7377 25.0512 78.9059C23.9097 84.9873 24.2023 87.4771 26.4599 90.9063L29.3095 95.2343L32.4687 91.3532C35.0257 88.2117 35.4204 85.8184 34.5374 78.7975C33.5269 70.7492 33.8246 69.7218 38.6579 64.5747C46.584 56.1337 52.7732 59.133 54.8079 72.4012C55.7861 78.7738 55.5343 79.5947 52.603 79.5947C50.7044 79.5947 48.7973 78.0325 48.1253 75.9269C47.045 72.5383 46.7728 72.6923 44.5493 77.9563C43.224 81.0876 42.4619 84.8333 42.8549 86.2771C43.2972 87.9071 43.6425 87.4958 43.765 85.1955C44.0644 79.5778 47.3615 78.6266 47.3904 84.1495C47.4057 86.7646 48.2274 90.0465 49.2193 91.4429C50.5615 93.3318 50.7521 92.3569 49.9678 87.6346C49.0491 82.115 49.3434 81.2873 52.222 81.2873C54.6122 81.2873 56.0039 83.0527 57.2271 87.6346C58.8245 93.6179 58.9215 93.6907 58.9147 88.904C58.9096 86.1112 58.0317 78.8754 56.9634 72.8244C55.1975 62.8296 54.4982 61.5635 49.3162 58.9891C42.3241 55.5159 37.9501 49.7899 40.1141 46.9395C42.3156 44.0401 45.6636 31.7671 45.6636 26.5996C45.6636 24.1995 43.942 20.288 41.8358 17.9082C36.7303 12.1347 29.3265 10.977 21.8835 14.787ZM79.6887 15.2762C85.1106 20.6705 83.7258 28.0163 76.7932 30.6399C68.8432 33.6459 60.7589 25.4436 64.5731 18.2382C68.4094 10.9905 74.2328 9.84805 79.6887 15.2762ZM38.1781 16.571C41.0532 18.4803 43.9624 24.775 43.9624 29.0827V32.9553L41.3135 29.1944C38.3636 25.0018 33.7021 24.379 28.6698 27.5052C26.038 29.1419 24.8947 29.1419 23.2496 27.5052C20.9393 25.2066 17.7614 24.6549 19.0815 26.7824C19.5426 27.5255 19.2176 29.2384 18.3568 30.5908C17.2289 32.3646 16.7865 31.4388 16.7678 27.2581C16.7321 19.1556 20.8168 15.2711 29.3401 15.3016C33.1713 15.3168 37.1489 15.8872 38.1781 16.571ZM70.0154 18.025C69.3536 19.7413 70.1447 21.4355 72.1198 22.5357C75.1991 24.2486 75.1974 24.3265 72.0824 25.4148C69.1494 26.4372 69.1256 26.6267 71.7966 27.6457C76.0838 29.2824 77.6251 23.8221 73.685 20.9548C70.8728 18.9102 70.8439 18.6614 73.4094 18.6614C74.9915 18.6614 76.2862 17.8997 76.2862 16.9688C76.2862 14.1912 71.162 15.0528 70.0154 18.025ZM38.5184 29.1555C41.7627 32.3832 41.0175 43.1143 37.3173 46.4453C29.3112 53.6541 16.4038 45.5939 19.0645 35.0474C19.9798 31.4201 21.2081 30.5095 25.1805 30.5095C27.9144 30.5095 30.6245 29.7479 31.203 28.8169C32.6269 26.5252 36.0345 26.6843 38.5184 29.1555ZM35.4561 53.4357C35.4561 54.502 34.0032 56.6821 32.2254 58.2816C29.153 61.049 28.862 61.0016 26.271 57.3219C22.4909 51.9513 22.7426 51.4977 29.5017 51.4977C32.8396 51.4977 35.4561 52.3491 35.4561 53.4357ZM25.6416 64.6474C23.1867 67.0899 17.695 58.5897 19.2023 54.6815C20.1516 52.2204 20.9053 52.6453 23.8757 57.3134C26.3374 61.1827 26.8767 63.4186 25.6416 64.6474ZM40.5054 56.3216C40.4306 61.5957 35.9665 67.2388 33.6749 64.9589C32.45 63.7402 32.8447 61.5568 34.9576 57.8669C38.5507 51.5874 40.5803 51.0221 40.5054 56.3216ZM71.1824 61.8936C63.6391 71.472 63.224 72.8413 67.5179 73.9584C70.3641 74.6981 71.1331 76.4956 71.635 83.5791L72.2542 92.2892L72.569 82.5568C72.8173 74.8944 72.341 72.8244 70.3318 72.8244C66.2709 72.8244 67.4482 69.1193 73.8262 61.8225L79.7449 55.0521L84.8622 60.9762C92.9959 70.3921 94.0422 72.8244 89.9558 72.8244C86.8391 72.8244 86.5244 73.7959 86.8 82.5568C87.1028 92.1656 87.1147 92.1876 87.7441 84.2595C88.2035 78.4607 89.3008 75.7407 91.6911 74.4679C93.5114 73.498 95 72.0762 95 71.3061C95 68.4947 82.1657 54.2211 79.6887 54.2769C78.2852 54.3074 74.4574 57.7366 71.1824 61.8936ZM78.8381 64.3614C78.2597 65.2923 78.5982 66.054 79.5883 66.054C80.5785 66.054 81.39 65.2923 81.39 64.3614C81.39 63.4305 81.0531 62.6688 80.6397 62.6688C80.2263 62.6688 79.4165 63.4305 78.8381 64.3614ZM32.0536 67.7466C32.0536 68.6775 30.9053 69.4392 29.5017 69.4392C28.0982 69.4392 26.9498 68.6775 26.9498 67.7466C26.9498 66.8157 28.0982 66.054 29.5017 66.054C30.9053 66.054 32.0536 66.8157 32.0536 67.7466ZM32.8294 80.5747C33.6596 85.661 33.2938 88.0238 31.4411 89.554C29.4099 91.2313 28.6154 91.0773 27.3088 88.7567C26.4208 87.1776 25.9308 84.659 26.22 83.1627C28.9726 68.9111 30.81 68.1917 32.8294 80.5747ZM78.8381 72.8244C78.2597 73.7553 78.5982 74.517 79.5883 74.517C80.5785 74.517 81.39 73.7553 81.39 72.8244C81.39 71.8934 81.0531 71.1318 80.6397 71.1318C80.2263 71.1318 79.4165 71.8934 78.8381 72.8244ZM78.8381 81.2873C78.2597 82.2183 78.5982 82.9799 79.5883 82.9799C80.5785 82.9799 81.39 82.2183 81.39 81.2873C81.39 80.3564 81.0531 79.5947 80.6397 79.5947C80.2263 79.5947 79.4165 80.3564 78.8381 81.2873ZM78.8381 89.7503C78.2597 90.6812 78.5982 91.4429 79.5883 91.4429C80.5785 91.4429 81.39 90.6812 81.39 89.7503C81.39 88.8194 81.0531 88.0577 80.6397 88.0577C80.2263 88.0577 79.4165 88.8194 78.8381 89.7503ZM20.5701 97.7867C34.3707 98.0711 56.9549 98.0711 70.7571 97.7867C84.5577 97.5024 73.2665 97.2688 45.6636 97.2688C18.0608 97.2688 6.76786 97.5024 20.5701 97.7867Z" fill="#2D5BD0"/>
</svg>
