<svg width="129" height="79" viewBox="0 0 129 79" fill="none" xmlns="http://www.w3.org/2000/svg">
<path fill-rule="evenodd" clip-rule="evenodd" d="M19.131 0.50144C18.8387 0.872056 14.35 8.64231 9.15514 17.7683C2.868 28.8137 -0.189762 34.6615 0.00910901 35.2597C0.330129 36.2251 18.7928 47.0591 20.1173 47.0591C20.8582 47.0591 22.0636 45.7992 23.2598 43.7748C23.7146 43.0046 24.0831 43.1273 26.7931 44.9515C28.4572 46.072 30.6837 48.0336 31.7416 49.3112L33.6642 51.6343L32.5447 53.2141C31.9183 54.0967 31.3237 55.8464 31.1965 57.1798C30.823 61.0812 32.5684 63.4255 36.6326 64.4831C37.3266 64.6636 38.3488 65.5427 38.904 66.4366C40.2925 68.6719 42.9798 70.381 45.1053 70.381C46.4535 70.381 47.3716 70.848 49.0156 72.3705C51.0184 74.2246 54.4452 75.7334 55.3618 75.1646C55.5824 75.0277 56.0084 75.3775 56.3092 75.9423C57.0093 77.2554 60.3972 79 62.2481 79C63.033 79 64.5452 78.5549 65.6077 78.0103C67.1573 77.2169 68.1582 77.079 70.6637 77.3142C74.0723 77.6341 76.4719 76.8138 77.6444 74.9283C77.9856 74.3792 78.6075 73.929 79.0269 73.928C80.3776 73.9249 83.0811 71.94 84.1022 70.2021C84.7846 69.0395 85.7103 68.3267 87.064 67.919C89.2041 67.2752 91.9515 64.5277 92.4497 62.5342C92.6198 61.8533 93.5172 60.8469 94.4444 60.2973C96.7128 58.9533 97.8172 56.6449 97.7778 53.3302C97.7465 50.7323 97.8575 50.5026 100.557 47.5742C102.103 45.8966 103.529 44.5241 103.726 44.5241C103.922 44.5241 104.613 45.4935 105.26 46.6789C106.74 49.3867 107.778 50.6081 108.601 50.6081C109.207 50.6081 127.021 40.458 128.371 39.3441C128.718 39.0577 129.001 38.5659 129 38.2515C128.999 37.9367 124.6 30.0366 119.225 20.6952C112.116 8.34268 109.178 3.66917 108.449 3.55864C107.398 3.39894 89.3036 13.5901 88.3022 14.9058C87.81 15.5522 87.3881 15.4437 85.2737 14.125C80.6986 11.2716 77.4339 10.4315 69.8859 10.1648C64.1439 9.96254 62.5651 10.0736 60.2957 10.8402C58.8022 11.3446 56.2168 11.7938 54.5512 11.8384C52.303 11.8988 49.9347 12.5274 45.3592 14.2791C41.9693 15.577 39.0549 16.6392 38.8828 16.6392C38.7102 16.6392 39.0423 15.8706 39.6197 14.9316C41.5897 11.7299 41.515 11.6473 31.2237 5.69615C26.0279 2.69117 21.3009 0.141473 20.7194 0.0299338C20.138 -0.0821128 19.4232 0.130318 19.131 0.50144ZM29.0271 8.78073C32.9187 11.0115 36.1082 13.039 36.1153 13.2859C36.1365 14.0474 19.7518 42.4566 19.2794 42.4769C18.9397 42.4916 5.21912 34.7603 4.41405 34.1007C4.10009 33.8437 21.1828 4.45248 21.5674 4.58886C21.7784 4.66339 25.135 6.54993 29.0271 8.78073ZM116.106 22.7232C122.516 33.864 124.28 37.3045 123.808 37.7486C123.472 38.0655 120.149 40.0716 116.424 42.2076C110.965 45.3368 109.533 45.963 109.048 45.4342C108.234 44.5464 92.6586 17.3323 92.6627 16.804C92.6662 16.3107 106.871 7.98676 107.418 8.15711C107.624 8.2215 111.533 14.776 116.106 22.7232ZM73.9562 14.1184C78.1931 14.6705 82.3249 16.4329 86.8127 19.6011C88.4546 20.7606 90.0567 21.7092 90.3726 21.7092C90.8032 21.7092 100.811 38.3686 101.635 40.457C101.713 40.6552 100.272 42.4495 98.434 44.444L95.0905 48.0711L87.4396 40.7809C78.8134 32.562 74.144 28.4107 71.2493 26.3873C69.5493 25.1989 68.7689 25.0047 65.697 25.0047C59.9585 25.0047 58.8794 25.934 55.3083 33.9517C54.5214 35.7181 53.5038 36.1962 51.5691 35.7089C47.8461 34.77 48.6905 24.9621 52.888 20.3879C55.1685 17.9026 60.1438 14.6594 62.5686 14.0784C64.8309 13.5359 69.6154 13.5526 73.9562 14.1184ZM49.531 18.2656C46.3566 21.9906 44.6319 30.931 46.2567 35.2384C47.5544 38.6789 50.9432 40.39 54.5027 39.4029C57.0083 38.7078 58.5836 36.9597 59.6385 33.7037C60.7091 30.3986 61.5505 29.4394 63.9501 28.7904C66.7222 28.0406 68.1193 28.5805 72.1548 31.9622C79.1112 37.7907 93.7065 51.8482 93.9932 52.9961C94.4157 54.6874 93.8074 56.5821 92.64 57.2097C91.7556 57.6848 91.0616 57.2553 87.3391 53.9289C82.9745 50.0281 82.2205 49.6357 81.1514 50.7095C79.9536 51.9126 80.6123 52.9869 84.8325 56.7113C87.1902 58.7921 89.1209 60.6806 89.1229 60.9083C89.1315 61.9076 87.9665 63.3353 86.536 64.078C84.7886 64.9861 85.3337 65.2857 80.153 60.5706C77.1952 57.8789 75.3746 57.553 75.0773 59.6631C74.946 60.596 75.6653 61.5547 78.3435 64.0172L81.7783 67.1753L80.9031 68.5168C79.3701 70.8667 77.9321 70.7765 74.6921 68.1254C71.6142 65.6066 70.5537 65.4155 69.6593 67.2179L69.095 68.3551L68.1334 67.2883C67.605 66.7012 66.5662 65.9063 65.8252 65.5214C64.9843 65.0849 64.3478 64.2271 64.1318 63.2405C63.7648 61.5603 60.3114 57.7061 59.1737 57.7061C58.8012 57.7061 58.2086 56.7367 57.8563 55.5513C57.1027 53.0143 54.0207 49.8359 51.8493 49.3568C50.8822 49.1439 50.2563 48.6308 50.0741 47.9022C49.6102 46.0456 47.0395 43.9629 44.8469 43.6673C42.5296 43.355 40.2638 44.3294 37.7633 46.7133L36.1178 48.282L33.4729 45.6806C32.0182 44.2498 29.6641 42.3166 28.2417 41.3843L25.6549 39.6899L30.8876 30.5725L36.1203 21.4557L39.0261 20.6328C40.6247 20.1806 43.9767 18.9978 46.4752 18.0045C48.9737 17.0113 51.0926 16.1839 51.1835 16.1657C51.2744 16.1474 50.5309 17.0925 49.531 18.2656ZM45.6055 47.8485C46.2228 48.2825 46.721 49.1378 46.7124 49.7497C46.7044 50.3774 44.9211 53.0255 42.6164 55.8327C39.1372 60.0707 38.3412 60.7815 37.2212 60.6492C36.4413 60.5574 35.615 59.9693 35.1885 59.2022C34.552 58.0574 34.5748 57.6878 35.3889 55.965C36.4585 53.7008 41.4191 48.1542 42.9213 47.5428C44.3457 46.9628 44.3477 46.9633 45.6055 47.8485ZM52.992 54.7031C53.7108 55.561 54.2988 56.6186 54.2988 57.0536C54.2988 58.4366 47.1839 66.832 46.0134 66.83C44.4148 66.8275 41.6801 64.9501 41.6801 63.856C41.6801 63.3261 43.4402 60.7024 45.5919 58.026C49.963 52.5879 50.8766 52.1778 52.992 54.7031ZM59.4013 62.6021C60.9685 64.4304 60.8348 65.1042 58.2722 68.2856C56.5071 70.4769 55.4214 71.395 54.5961 71.395C53.2843 71.395 50.7615 69.6144 50.7731 68.6963C50.7772 68.3682 52.1486 66.4416 53.8203 64.4157C57.0335 60.5214 57.4898 60.3729 59.4013 62.6021ZM65.1736 69.5977C65.855 70.2822 66.4128 71.0954 66.4128 71.4052C66.4128 73.6091 63.2217 75.7496 61.1285 74.9501C60.4118 74.6763 59.6961 74.1141 59.5381 73.7009C59.2433 72.9297 62.6064 68.353 63.4681 68.353C63.725 68.353 64.4922 68.9133 65.1736 69.5977ZM72.8907 71.4888C73.7695 72.2377 74.4887 72.9546 74.4887 73.0818C74.4887 73.5259 71.8716 73.9686 70.9621 73.6785C70.3023 73.4681 69.9955 72.768 69.8693 71.1831C69.6749 68.7434 69.6669 68.7424 72.8907 71.4888Z" fill="#2D5BD0"/>
</svg>
